<?xml version="1.0" encoding="utf-8"?> 
<!-- Generated by Layerhero SVG Exporter: http://www.layerhero.com/photoshop-svg-exporter -->
<!DOCTYPE svg PUBLIC "-//W3C//DTD SVG 1.1//EN" "http://www.w3.org/Graphics/SVG/1.1/DTD/svg11.dtd">
<svg version="1.1" baseProfile="full" xmlns="http://www.w3.org/2000/svg" xmlns:xlink="http://www.w3.org/1999/xlink" xmlns:ev="http://www.w3.org/2001/xml-events" width="61" height="47" viewBox="0 0 61 47">
<g transform="scale(NaN)" ><path fill-rule="evenodd"  fill="rgb( 34, 34, 34 )"
 d="M0.000,47.000 C0.000,47.000 4.333,47.000 4.333,47.000 C4.333,47.000 24.000,9.203 24.000,9.203 C24.000,9.203 42.667,47.000 42.667,47.000 C42.667,47.000 61.000,47.000 61.000,47.000 C61.000,47.000 37.667,0.000 37.667,0.000 C37.667,0.000 29.667,0.000 29.667,0.000 C29.667,0.000 31.667,3.615 31.667,3.615 C31.667,3.615 35.000,3.615 35.000,3.615 C35.000,3.615 55.000,43.713 55.000,43.713 C55.000,43.713 45.333,43.713 45.333,43.713 C45.333,43.713 24.000,0.329 24.000,0.329 C24.000,0.329 0.000,47.000 0.000,47.000 Z"/>
<path fill-rule="evenodd"  fill="rgb( 34, 34, 34 )"
 d="M11.406,43.566 C11.406,43.566 9.000,47.000 9.000,47.000 C9.000,47.000 16.821,47.000 16.821,47.000 C16.821,47.000 22.348,35.906 22.348,35.906 C22.348,35.906 27.041,35.906 27.041,35.906 C27.041,35.906 27.667,32.208 27.667,32.208 C27.667,32.208 20.367,32.208 20.367,32.208 C20.367,32.208 14.795,43.566 14.795,43.566 C14.795,43.566 11.406,43.566 11.406,43.566 Z"/>
</g></svg>
